<?xml version="1.0" encoding="utf-8"?>
<!-- Generator: Adobe Illustrator 24.1.3, SVG Export Plug-In . SVG Version: 6.00 Build 0)  -->
<svg version="1.1" baseProfile="tiny" id="b4f74b74-9f48-4ac7-9642-0389d8d43dd0"
	 xmlns="http://www.w3.org/2000/svg" xmlns:xlink="http://www.w3.org/1999/xlink" x="0px" y="0px" viewBox="0 0 882.6 873.8"
	 overflow="visible" xml:space="preserve">
<polygon fill="#BFBFBF" points="689.4,763.8 146.8,271.2 231.6,106 828.3,759.7 "/>
<circle fill="#BFBFBF" cx="442.3" cy="212.5" r="32.8"/>
<circle fill="#3F3D56" cx="585.3" cy="281.1" r="11"/>
<circle fill="#3F3D56" cx="585.3" cy="368.1" r="11"/>
<circle fill="#3F3D56" cx="695.3" cy="390.1" r="11"/>
<ellipse fill="#BFBFBF" cx="440.3" cy="763.1" rx="405" ry="20"/>
<path fill="#3F3D56" d="M677.2,438.2c-4.6-7.6-20.6-7.4-20.6-7.4c-14.6,21.7-49.7-1.4-49.7-1.4c-26.1,11.7-42-25.5-42-25.5
	c-35.1-5.2-29.7-42.1-29.7-42.1c-17.5-3.5-12.6-35.1-12.6-35.1s9.7-7.9,4.9-13.8c-3-3.7-3.2-14.3-3-21.5
	c-22.8-6.9-46.5-10.4-70.3-10.4c-133.1,0-241,107.9-241,241s107.9,241,241,241s241-107.9,241-241c0-28.9-5.2-57.6-15.3-84.7
	C678.7,438.8,677.8,439.2,677.2,438.2z"/>
<image width="483" height="482" xlink:href="C5F793FB.png"  transform="matrix(1 0 0 1 213.0597 281.0712)">
</image>
<path fill="#3F3D56" d="M662.9,437.3c-4.4-7.2-19.6-7-19.6-7C629.4,450.9,596,429,596,429c-24.8,11.1-39.9-24.3-39.9-24.3
	c-33.4-5-28.2-40-28.2-40c-16.6-3.3-11.9-33.4-11.9-33.4s9.2-7.6,4.7-13.1c-2.9-3.5-3.1-13.6-2.8-20.5c-21.7-6.6-44.2-9.9-66.8-9.9
	c-126.6,0-229.2,102.6-229.2,229.2s102.6,229.2,229.2,229.2S680.1,643.6,680.1,517c0-27.5-4.9-54.8-14.6-80.5
	C664.4,437.8,663.5,438.2,662.9,437.3z"/>
<image width="31" height="97" xlink:href="C5F793F9.png"  transform="matrix(1 0 0 1 312.0597 555.0712)">
</image>
<image width="32" height="107" xlink:href="C5F793FF.png"  transform="matrix(1 0 0 1 546.0597 481.0712)">
</image>
<image width="21" height="27" xlink:href="C5F793F8.png"  transform="matrix(1 0 0 1 626.0597 495.0712)">
</image>
<image width="5" height="30" xlink:href="C5F793F6.png"  transform="matrix(1 0 0 1 585.0597 447.0712)">
</image>
<image width="23" height="62" xlink:href="C5F793F7.png"  transform="matrix(1 0 0 1 577.0597 599.0712)">
</image>
<image width="92" height="60" xlink:href="C5F79407.png"  transform="matrix(1 0 0 1 412.0597 313.0712)">
</image>
<image width="57" height="97" xlink:href="C5F79409.png"  transform="matrix(1 0 0 1 265.0597 341.0712)">
</image>
<image width="23" height="131" xlink:href="C5F7940B.png"  transform="matrix(1 0 0 1 243.0597 457.0712)">
</image>
<image width="39" height="36" xlink:href="9CC86358.png"  transform="matrix(1 0 0 1 278.0597 468.0712)">
</image>
<image width="56" height="17" xlink:href="9CC8635F.png"  transform="matrix(1 0 0 1 464.0597 671.0712)">
</image>
<image width="43" height="40" xlink:href="9CC86359.png"  transform="matrix(1 0 0 1 300.0597 651.0712)">
</image>
<image width="33" height="41" xlink:href="9CC8635B.png"  transform="matrix(1 0 0 1 499.0597 554.0712)">
</image>
<path fill="#2F2E41" d="M197.1,171.1h28.2c18.6,0,33.6,15,33.6,33.6l0,0v61.8l0,0h-95.4l0,0v-61.8
	C163.5,186.1,178.6,171.1,197.1,171.1C197.1,171.1,197.1,171.1,197.1,171.1z"/>
<path fill="#FBBEBE" d="M226.1,701.2c0,0-3,19-8,22s26,10,26,10l5-30L226.1,701.2z"/>
<path fill="#2F2E41" d="M263.1,484.2l11,13l-5,45l-4,89c0,0,8,77,0,79s-44,1-43-4s2-9,4-16s-2-32-2-32l5-28l-18-121L263.1,484.2z"/>
<path fill="#2F2E41" d="M227.1,720.2c0,0-11-2-12,0s-20,23-23,23s-25,20-2,21s61-17,61-17s-5.6-25.4-5.3-24.2
	S227.1,725.2,227.1,720.2z"/>
<path fill="#FBBEBE" d="M215.1,674.2c0,0,28,31,29,34s16,0,16,0l6-20l-5-7l-28-23L215.1,674.2z"/>
<path fill="#2F2E41" d="M255.1,697.2l-14.5,13.6c0,0,18.5,28.4,18.5,31.4s1,28,11,24s11-44,11-44s-1-41-7-44s-19.2-2.1-19.2-2.1
	S263.1,696.2,255.1,697.2z"/>
<path fill="#2F2E41" d="M172.1,395.2c0,0-5,16-6,20s-7,15-7,32s2,37,0,39s-34,114-20,126s60,52,63,57s4,17,10,15s29-22,30-26
	s-13-11-13-11s-28-41-35-40s-6-5-5-8s3-5,0-5s-1-8,0-12s24-58,24-58l61-27c0,0-3-73-25-93l-5-12
	C244.1,392.2,188.1,388.2,172.1,395.2z"/>
<path fill="#FBBEBE" d="M197.1,237.2c0,0,5,35-7,37s-22,1-22,2s30,32,30,32l28-2l25-27c0,0-23-4-23-18s-1-24-1-24H197.1z"/>
<image width="84" height="72" xlink:href="9CC86346.png"  transform="matrix(1 0 0 1 168.0597 237.0712)">
</image>
<circle fill="#FBBEBE" cx="212.6" cy="220.7" r="31"/>
<path d="M185.1,271.2c0,0-39,5-42,18s20,94,23,101s2,12,2,12c9.2-6.8,20.8-9.4,32-7c19,4,46,2,46,2s9-37,11-41s10-26,10-32
	s12-31,12-31s-6-18-28-17c0,0-9.6-4.3-12.3-1.1s-17.7,17.1-36.7,11.1S185.1,271.2,185.1,271.2z"/>
<path d="M154.1,288.2h-11l-6,79c0,0,22,6,25,2S154.1,288.2,154.1,288.2z"/>
<path d="M260.1,288.2l19,5c0,0,14,51,15,52s2,7,2,7s0,1,2,4s5,1,3,5s-5,2-3,6s1,15,1,15s-5-19-23-14l-12-54L260.1,288.2z"/>
<polygon fill="#2F2E41" points="236.8,213.1 188.6,213.1 177.7,188 245,188 "/>
<ellipse transform="matrix(0.9605 -0.2783 0.2783 0.9605 -55.5573 59.1386)" fill="#FFB9B9" cx="180.5" cy="225.2" rx="2.4" ry="6.5"/>
<ellipse transform="matrix(0.2783 -0.9605 0.9605 0.2783 -39.4267 398.0077)" fill="#FFB9B9" cx="245.1" cy="225.2" rx="6.5" ry="2.4"/>
<circle fill="#3F3D56" cx="239.3" cy="340.1" r="18"/>
<image width="37" height="36" xlink:href="9CC86347.png"  transform="matrix(1 0 0 1 221.0597 322.0712)">
</image>
<circle fill="#3F3D56" cx="239.3" cy="340.1" r="16.2"/>
<circle fill="#3F3D56" cx="223.3" cy="350.1" r="18"/>
<image width="37" height="36" xlink:href="9CC86348.png"  transform="matrix(1 0 0 1 205.0597 332.0712)">
</image>
<circle fill="#3F3D56" cx="223.3" cy="350.1" r="16.2"/>
<path fill="#3F3D56" d="M209.6,305.1c-0.4-0.7-2-0.7-2-0.7c-1.4,2.1-4.7-0.1-4.7-0.1c-2.5,1.1-4-2.4-4-2.4c-3.3-0.5-2.8-4-2.8-4
	c-1.7-0.3-1.2-3.3-1.2-3.3s0.9-0.8,0.5-1.3c-0.3-0.6-0.4-1.4-0.3-2.1c-12.1-3.7-25,3.2-28.7,15.3s3.2,25,15.3,28.7
	c12.1,3.7,25-3.2,28.7-15.3c1.5-4.8,1.3-10-0.5-14.8C209.7,305.1,209.6,305.2,209.6,305.1z"/>
<image width="47" height="47" xlink:href="9CC8634B.png"  transform="matrix(1 0 0 1 165.0597 289.0712)">
</image>
<path fill="#3F3D56" d="M208.2,305c-0.4-0.7-1.9-0.7-1.9-0.7c-1.3,2-4.5-0.1-4.5-0.1c-2.4,1.1-3.8-2.3-3.8-2.3
	c-3.2-0.5-2.7-3.8-2.7-3.8c-1.6-0.3-1.1-3.2-1.1-3.2s0.9-0.7,0.4-1.2c-0.3-0.6-0.4-1.3-0.3-2c-11.5-3.5-23.8,3-27.3,14.5
	c-3.5,11.5,3,23.8,14.5,27.3c11.5,3.5,23.8-3,27.3-14.5c1.4-4.6,1.2-9.5-0.4-14C208.3,305,208.2,305.1,208.2,305z"/>
<image width="4" height="10" xlink:href="9CC86349.png"  transform="matrix(1 0 0 1 174.0597 316.0712)">
</image>
<image width="3" height="11" xlink:href="9CC8634F.png"  transform="matrix(1 0 0 1 197.0597 309.0712)">
</image>
<image width="3" height="3" xlink:href="9CC86363.png"  transform="matrix(1 0 0 1 204.0597 310.0712)">
</image>
<image width="2" height="4" xlink:href="9CC8636D.png"  transform="matrix(1 0 0 1 200.0597 305.0712)">
</image>
<image width="4" height="7" xlink:href="9CC8636F.png"  transform="matrix(1 0 0 1 199.0597 320.0712)">
</image>
<image width="9" height="6" xlink:href="9CC86362.png"  transform="matrix(1 0 0 1 184.0597 293.0712)">
</image>
<image width="6" height="10" xlink:href="9CC86361.png"  transform="matrix(1 0 0 1 170.0597 295.0712)">
</image>
<image width="3" height="14" xlink:href="9CC86365.png"  transform="matrix(1 0 0 1 168.0597 306.0712)">
</image>
<image width="5" height="5" xlink:href="9CC86367.png"  transform="matrix(1 0 0 1 171.0597 307.0712)">
</image>
<image width="6" height="2" xlink:href="9CC86360.png"  transform="matrix(1 0 0 1 189.0597 327.0712)">
</image>
<image width="5" height="5" xlink:href="9CC8635E.png"  transform="matrix(1 0 0 1 173.0597 325.0712)">
</image>
<image width="4" height="4" xlink:href="9CC8639D.png"  transform="matrix(1 0 0 1 192.0597 316.0712)">
</image>
<path d="M140.1,359.2l-3,8c0,0-2,26,10,25s19-16,19-16s-7-19-15-17S140.1,359.2,140.1,359.2z"/>
<path fill="#FBBEBE" d="M150.1,364.2c0,0-6,18,1,18s20-11,21-20s19-43,6-40s-19,28-19,28L150.1,364.2z"/>
<path fill="#FBBEBE" d="M293.1,365.2l6.2,10.4c0,0,2.8,19.6-11.2,19.6s-34-19-34-19s-10-4-16-3s-39,0-25-17s38,0,38,0l25,12l13-7
	L293.1,365.2z"/>
<path d="M284.6,351.7l-10,16c0,0,23,3,25,8s-9-26-9-26L284.6,351.7z"/>
</svg>
