<?xml version="1.0" encoding="utf-8"?>
<!-- Generator: Adobe Illustrator 24.1.3, SVG Export Plug-In . SVG Version: 6.00 Build 0)  -->
<svg version="1.1" baseProfile="tiny" id="a751cec9-7d0e-4c8a-a2d9-3a6c65a20454"
	 xmlns="http://www.w3.org/2000/svg" xmlns:xlink="http://www.w3.org/1999/xlink" x="0px" y="0px" viewBox="0 0 889.6 838.6"
	 overflow="visible" xml:space="preserve">
<path d="M694.3,762.8h-485l0.2-51.4c0.6-130.1,104.4-237.3,234.5-239.5c1.4,0,2.8,0,4.2,0h0c29.3,0,58.3,5.2,85.8,15.4
	c92.1,34.3,153.8,121.4,158,219.5L694.3,762.8z"/>
<polygon fill="#2F2E41" points="443.6,532.8 465,548.4 486.3,731 536.8,731 519.4,523.1 449.4,495.9 "/>
<path fill="#2F2E41" d="M354.2,474.6c0,0-5.8,66.1,17.5,68s112.7-19.4,112.7-19.4l42.7,151.5l64.1-33c0,0-38.9-171-62.2-180.7
	c-23.3-9.7-101-29.1-101-29.1l-56.3,9.7L354.2,474.6z"/>
<path fill="#2F2E41" d="M494.1,727.1c0,0-11.7,44.7-3.9,48.6c4.7,2.3,9.2,4.9,13.6,7.8v-7.8c0,0,9.7,9.7,9.7,17.5s52.5,9.7,52.5,0
	s-1.9-21.4-11.7-27.2S533,727.1,533,727.1L494.1,727.1z"/>
<polygon fill="#2F2E41" points="550.4,647.5 554.3,684.4 567.9,707.7 601,670.8 575.7,630 "/>
<path fill="#2F2E41" d="M581.5,684.4c0,0,7.2-24.5,14.3-21.9s34.3,27.8,34.3,27.8l19.4,11.7c0,0,38.9,3.9,27.2,15.5
	s-54.4,27.2-73.8,19.4s-23.3-9.7-23.3-9.7l-5.8,3.9l-23.3-5.8l3.9-40.8C554.3,684.4,560.2,701.9,581.5,684.4z"/>
<circle fill="#8F666B" cx="420.3" cy="187" r="44.7"/>
<path fill="#8F666B" d="M392.1,213.3c0,0,3.9,40.8-7.8,40.8s1.9,50.5,33,50.5s42.7-60.2,42.7-60.2s-21.4-7.8-17.5-33
	S392.1,213.3,392.1,213.3z"/>
<path fill="#3F3D56" d="M389,250.9l-16.3,7l-44.3,18.8c-3.7,1.6-5.9,5.3-5.4,9.3l16.7,148.7c0,0-17.5,36.9,9.7,38.9l3.9,13.6
	l31.1-36.9l116.6-3.9l1.9-188.5l-53.3-21.1C449.5,236.9,442.3,277,389,250.9z"/>
<path fill="#3F3D56" d="M334.8,282.2l-7.2-2.1c-3.1-0.9-6.4,0.9-7.3,4.1c-0.1,0.2-0.1,0.5-0.2,0.7l-19.1,119.5
	c-1.5,8.9-0.1,17.9,4.1,25.9c5.9,11.1,18.1,21.3,43.2,9.2l17.5-126.3L334.8,282.2z"/>
<path fill="#3F3D56" d="M480.5,255l23.3,3.9l64.1,89.4l5.8,15.5l36.9-11.7c0,0-1.9,17.5,17.5,15.5c0,0-23.3,64.1-71.9,44.7
	s-64.1-77.7-64.1-77.7L480.5,255z"/>
<polygon fill="#CCCCCC" points="507.7,293.9 420.3,258.9 416.4,270.6 457.2,305.5 "/>
<path fill="#2F2E41" d="M393.4,189.9c1.7-0.4,1.9-2.6,1.9-4.3c0.3-9.1,5.8-18.5,14.6-21.2c3.4-0.9,6.9-1.1,10.3-0.6
	c4.9,0.7,9.6,2.2,14,4.7c2.3,1.3,4.5,2.8,7.1,3.2c1.7,0.3,9.1,2.4,10.8,2.7c3.7,0.7,7.2,4,10.8,2.8c3.4-1.2,4.2-5.6,4.3-9.3
	c0.2-8.3-6.1-19.7-11.6-25.9c-4.2-4.7-10.5-6.8-16.7-7.9c-7.2-1.2-14.5-1.6-21.8-1.3c-9.9,0.2-20.1,0.9-29,5.2
	c-8.9,4.3-16.4,12.8-16.8,22.7c-0.1,2.1,0.1,4.1,0,6.2c-0.4,5-3.1,9.5-4.3,14.4c-1.8,7.2-0.5,14.9,3.7,21.1
	c3.3,4.9,16.5,9.3,16.4,15.2c2.4-2.5-3.2-5-0.9-7.5c2.2-1.7,2.9-4.7,1.8-7.2l-2.5-9.9c-0.5-1.8-0.9-3.8-0.2-5.5
	C387.7,180.6,390.6,190.6,393.4,189.9z"/>
<polygon fill="#F2F2F2" points="416.4,270.6 379.5,414.3 523.2,464.8 606.8,394.9 659.2,237.5 573.8,299.7 "/>
<rect x="492.2" y="233.2" transform="matrix(0.2552 -0.9669 0.9669 0.2552 71.8861 704.3839)" fill="#E6E6E6" width="1.9" height="144.7"/>
<rect x="488.3" y="242.9" transform="matrix(0.2552 -0.9669 0.9669 0.2552 59.5996 707.8623)" fill="#E6E6E6" width="1.9" height="144.7"/>
<rect x="486.3" y="252.6" transform="matrix(0.2552 -0.9669 0.9669 0.2552 48.7601 713.2192)" fill="#E6E6E6" width="1.9" height="144.7"/>
<rect x="484.4" y="262.3" transform="matrix(0.2552 -0.9669 0.9669 0.2552 37.9206 718.5761)" fill="#E6E6E6" width="1.9" height="144.7"/>
<rect x="482.4" y="272.1" transform="matrix(0.2552 -0.9669 0.9669 0.2552 27.0811 723.933)" fill="#E6E6E6" width="1.9" height="144.7"/>
<rect x="480.5" y="281.8" transform="matrix(0.2552 -0.9669 0.9669 0.2552 16.2416 729.2899)" fill="#E6E6E6" width="1.9" height="144.7"/>
<rect x="478.6" y="291.5" transform="matrix(0.2552 -0.9669 0.9669 0.2552 5.4022 734.6468)" fill="#E6E6E6" width="1.9" height="144.7"/>
<rect x="476.6" y="301.2" transform="matrix(0.2552 -0.9669 0.9669 0.2552 -5.4373 740.0037)" fill="#E6E6E6" width="1.9" height="144.7"/>
<rect x="474.7" y="310.9" transform="matrix(0.2552 -0.9669 0.9669 0.2552 -16.2768 745.3606)" fill="#E6E6E6" width="1.9" height="144.7"/>
<path fill="#8F666B" d="M357.2,376.3c0,0,43.7-26.1,63.1-8.6s-56.3,42.7-56.3,42.7L357.2,376.3z"/>
<path fill="#3F3D56" d="M309.5,389.1l56.3-21.4c0,0-9.7,36.9,9.7,38.9l-27.2,33C348.4,439.6,294,439.6,309.5,389.1z"/>
<polygon fill="#E6E6E6" points="457.8,388.3 532.6,413.5 514.9,452 440.1,426.8 "/>
<polygon fill="#CCCCCC" points="590.3,306.5 646.6,263.8 631.1,316.2 572.8,359 "/>
<rect x="555.9" y="356" transform="matrix(0.7967 -0.6044 0.6044 0.7967 -95.5738 429.9048)" fill="#E6E6E6" width="70.7" height="1.9"/>
<rect x="552" y="377.4" transform="matrix(0.7967 -0.6044 0.6044 0.7967 -109.2794 431.901)" fill="#E6E6E6" width="70.7" height="1.9"/>
<path fill="#8F666B" d="M622.3,369.6c0,0,48.6-29.1,17.5-40.8s-31.1,33-31.1,33S606.8,371.6,622.3,369.6z"/>
<image width="31" height="77" xlink:href="ECFC6E47.png"  transform="matrix(1 0 0 1 335.3034 303.7499)">
</image>
<rect x="671.3" y="511.8" fill="#BFBFBF" width="30" height="30"/>
<rect x="213.4" y="248.1" fill="#BFBFBF" width="30" height="30"/>
<rect x="551.3" y="171.8" fill="#BFBFBF" width="30" height="30"/>
<circle fill="#BFBFBF" cx="204.3" cy="460.8" r="15"/>
<circle fill="#BFBFBF" cx="689.9" cy="160.1" r="15"/>
<circle fill="#BFBFBF" cx="648.6" cy="451.3" r="15"/>
</svg>
