<?xml version="1.0" encoding="utf-8"?>
<!-- Generator: Adobe Illustrator 24.1.3, SVG Export Plug-In . SVG Version: 6.00 Build 0)  -->
<svg version="1.1" baseProfile="tiny" id="a7041ee8-d42c-4836-81ad-e3e5854f3a9a"
	 xmlns="http://www.w3.org/2000/svg" xmlns:xlink="http://www.w3.org/1999/xlink" x="0px" y="0px" viewBox="0 0 960 885.1"
	 overflow="visible" xml:space="preserve">
<path d="M960,833.5c-93.7-51.2-201.2-80.4-315.5-80.4c-148.4,0-285.3,49.1-395.4,131.9H960V833.5z"/>
<rect x="92.8" y="71.2" fill="#BFBFBF" width="338.2" height="457.9"/>
<circle fill="none" stroke="#E6E6E6" stroke-width="10" stroke-miterlimit="10" stroke-dasharray="19.9342,19.9342" cx="556.6" cy="268.6" r="215.7"/>
<path fill="#E6E6E6" d="M579.5,470.2c2.3-0.1,4.6-0.2,6.9-0.4l0.2,2.3c-2.3,0.2-4.6,0.3-6.9,0.4L579.5,470.2z"/>
<path fill="#E6E6E6" d="M774.5,264.4l2.3,0c0,2.3,0,4.7,0,6.9l-2.3,0C774.6,269,774.6,266.7,774.5,264.4z"/>
<polygon fill="#FFB8B8" points="586.7,715.8 577.7,747.8 600.7,751.8 613.7,724.8 "/>
<polygon fill="#FFB8B8" points="733.7,723.8 739.7,759.8 762.7,761.8 757.7,720.8 "/>
<circle fill="#FFB8B8" cx="672.7" cy="293.8" r="29"/>
<path fill="#FFB8B8" d="M654.7,311.8c0,0,5,31,4,34s31.5-4.5,31.5-4.5s1.5-32.5,2.5-34.5L654.7,311.8z"/>
<polygon fill="#FFB8B8" points="699.7,403.8 705.7,470.8 689.7,468.8 689.7,408.8 "/>
<path fill="#3F3D56" d="M698.5,340.8c-1-4-4.8-6.7-8.9-6.2c-12.1,1.3-35.4,4.1-36.9,6.3c-1.3,1.9-10.5,19.3-16.9,31.4
	c-3,5.5-6.5,10.8-10.4,15.7c-3.7,4.7-7.7,13.6-2.7,27.9c8,23,9,55,9,55l63-14c0,0-5-28,7-46C711.1,396.6,702.5,356.9,698.5,340.8z"
	/>
<path fill="#2F2E41" d="M627.7,458.8l6,49l-52,213c0,0,40,15,40,14s60-150,60-150l49,146l43-4l-43-185c0,0-0.5-52.5-31-80l-6-15.4
	C693.7,446.4,655.7,425.8,627.7,458.8z"/>
<path fill="#2F2E41" d="M765.7,751.8l-36-6l-2,23l-18,10c0,0-28,1-18,22s36,16,36,16s27,15,44,9c0,0,3.5-10.5,2-14
	c-1.6-3.8-7-32-7-32L765.7,751.8z"/>
<path fill="#2F2E41" d="M610.7,739.8l-36-6l-2,23l-18,10c0,0-28,1-18,22s36,16,36,16s27,15,44,9c0,0,3.5-7.5,2-14c-0.9-4-7-32-7-32
	L610.7,739.8z"/>
<path fill="#FFB8B8" d="M672.7,338.8c0,0-25.7-3.2-27.4,15.4s2.4,81.6,2.4,81.6l-24,85c0,0-33,46-12,42s27-39,27-39l30-73l11.5-60.9
	c2.3-11.9,2.3-24,0.2-35.9C678.9,346.2,676.5,339.3,672.7,338.8z"/>
<path fill="#2F2E41" d="M689.4,251.1L689.4,251.1c-19.1,0-34.6,21.5-34.6,47.9v33.6h8.3l4.8-12.5l-1.2,12.5h53.2l4.4-11.3l-1.1,11.3
	h6v-26.4C729.2,275.8,711.3,251.1,689.4,251.1z"/>
<path fill="#2F2E41" d="M693,258.6c-4.2-5.7-10.8-9-17.9-9.1h-0.8c-16.3,0-29.6,14.8-29.6,33v0h5.5l0.9-6.7l1.3,6.7h32.5l2.7-5.7
	l-0.7,5.7h6.4c3,14.8-1.3,29.6-12.9,44.4h10.9l5.4-11.4l-1.4,11.4h20.8l4.1-26.2C720.2,281.1,708.8,264.5,693,258.6z"/>
<circle cx="300.7" cy="158.1" r="33"/>
<circle cx="164.3" cy="297.9" r="33"/>
<circle cx="437.1" cy="297.9" r="33"/>
</svg>
