<?xml version="1.0" encoding="utf-8"?>
<!-- Generator: Adobe Illustrator 24.1.3, SVG Export Plug-In . SVG Version: 6.00 Build 0)  -->
<svg version="1.1" baseProfile="tiny" id="a7041ee8-d42c-4836-81ad-e3e5854f3a9a"
	 xmlns="http://www.w3.org/2000/svg" xmlns:xlink="http://www.w3.org/1999/xlink" x="0px" y="0px" viewBox="0 0 1377.5 885.1"
	 overflow="visible" xml:space="preserve">
<path d="M1335.6,885.2C1218.4,802.5,1075.5,754,921.2,754s-297.3,48.5-414.5,131.2H1335.6z"/>
<rect x="345.2" y="71.2" fill="#BFBFBF" width="338.2" height="457.9"/>
<circle fill="none" stroke="#E6E6E6" stroke-width="10" stroke-miterlimit="10" stroke-dasharray="19.9342,19.9342" cx="809" cy="268.6" r="215.7"/>
<path fill="#E6E6E6" d="M831.9,470.2c2.3-0.1,4.6-0.2,6.9-0.4l0.2,2.3c-2.3,0.2-4.6,0.3-6.9,0.4L831.9,470.2z"/>
<path fill="#E6E6E6" d="M1026.9,264.4l2.3,0c0,2.3,0,4.7,0,6.9l-2.3,0C1027,269,1027,266.7,1026.9,264.4z"/>
<polygon fill="#FFB8B8" points="839.1,715.8 830.1,747.8 853.1,751.8 866.1,724.8 "/>
<polygon fill="#FFB8B8" points="986.1,723.8 992.1,759.8 1015.1,761.8 1010.1,720.8 "/>
<circle fill="#FFB8B8" cx="925.1" cy="293.8" r="29"/>
<path fill="#FFB8B8" d="M907.1,311.8c0,0,5,31,4,34s31.5-4.5,31.5-4.5s1.5-32.5,2.5-34.5L907.1,311.8z"/>
<polygon fill="#FFB8B8" points="952.1,403.8 958.1,470.8 942.1,468.8 942.1,408.8 "/>
<path fill="#3F3D56" d="M950.9,340.8c-1-4-4.8-6.7-8.9-6.2c-12.1,1.3-35.4,4.1-36.9,6.3c-1.3,1.9-10.5,19.3-16.9,31.4
	c-3,5.5-6.5,10.8-10.4,15.7c-3.7,4.7-7.7,13.6-2.7,27.9c8,23,9,55,9,55l63-14c0,0-5-28,7-46C963.5,396.6,955,356.9,950.9,340.8z"/>
<path fill="#2F2E41" d="M880.1,458.8l6,49l-52,213c0,0,40,15,40,14s60-150,60-150l49,146l43-4l-43-185c0,0-0.5-52.5-31-80l-6-15.4
	C946.1,446.4,908.1,425.8,880.1,458.8z"/>
<path fill="#2F2E41" d="M1018.1,751.8l-36-6l-2,23l-18,10c0,0-28,1-18,22s36,16,36,16s27,15,44,9c0,0,3.5-10.5,2-14
	c-1.6-3.8-7-32-7-32L1018.1,751.8z"/>
<path fill="#2F2E41" d="M863.1,739.8l-36-6l-2,23l-18,10c0,0-28,1-18,22s36,16,36,16s27,15,44,9c0,0,3.5-7.5,2-14c-0.9-4-7-32-7-32
	L863.1,739.8z"/>
<path fill="#FFB8B8" d="M925.1,338.8c0,0-25.7-3.2-27.4,15.4s2.4,81.6,2.4,81.6l-24,85c0,0-33,46-12,42s27-39,27-39l30-73l11.5-60.9
	c2.3-11.9,2.3-24,0.2-35.9C931.3,346.2,928.9,339.3,925.1,338.8z"/>
<path fill="#2F2E41" d="M941.8,251.1L941.8,251.1c-19.1,0-34.6,21.5-34.6,47.9v33.6h8.3l4.8-12.5l-1.2,12.5h53.2l4.4-11.3l-1.1,11.3
	h6v-26.4C981.6,275.8,963.7,251.1,941.8,251.1z"/>
<path fill="#2F2E41" d="M945.4,258.6c-4.2-5.7-10.8-9-17.9-9.1h-0.8c-16.3,0-29.6,14.8-29.6,33v0h5.5l0.9-6.7l1.3,6.7h32.5l2.7-5.7
	l-0.7,5.7h6.4c3,14.8-1.3,29.6-12.9,44.4h10.9l5.4-11.4l-1.4,11.4h20.8l4.1-26.2C972.6,281.1,961.2,264.5,945.4,258.6z"/>
<circle cx="553.1" cy="158.1" r="33"/>
<circle cx="416.7" cy="297.9" r="33"/>
<circle cx="689.5" cy="297.9" r="33"/>
</svg>
