<svg xmlns="http://www.w3.org/2000/svg" width="106" height="65" viewBox="0 0 106 65"><title>briffs</title><path d="M42.08,60.12l-.39-2A34.56,34.56,0,0,0,30.61,38.76l-2.23-2,2.31-1.86A36.9,36.9,0,0,0,43.12,16.2l.51-1.82H62.58l.5,1.83a36.89,36.89,0,0,0,12.48,19L77.85,37l-2.18,2A34.57,34.57,0,0,0,64.85,58.09l-.38,2Z" style="fill:#fff"/><path d="M60.67,16.88A39.57,39.57,0,0,0,74,37.14,36.86,36.86,0,0,0,62.4,57.62H44.15A36.89,36.89,0,0,0,32.26,36.88a39.47,39.47,0,0,0,13.26-20H60.67m3.81-5H41.74l-1,3.63A34.32,34.32,0,0,1,29.13,33L24.5,36.71,29,40.64A32,32,0,0,1,39.24,58.56L40,62.62H66.53l.78-4.06a32.06,32.06,0,0,1,10-17.7l4.37-3.92-4.58-3.69a34.36,34.36,0,0,1-11.64-17.7l-1-3.67Z"/><path d="M72.43,39.09A41.74,41.74,0,0,1,58.26,17.54l-.87-3.16H101V30.19H98.5A34.32,34.32,0,0,0,75.67,39l-1.59,1.42Z" style="fill:#fff"/><path d="M98.49,16.88V27.7A36.76,36.76,0,0,0,74,37.14,39.57,39.57,0,0,1,60.67,16.88H98.49m5-5H54.11l1.74,6.33A44.29,44.29,0,0,0,70.86,41l3.31,2.67,3.17-2.85A31.82,31.82,0,0,1,98.51,32.7l5,0V11.88Z"/><path d="M30.61,38.76A34.36,34.36,0,0,0,7.92,30.2h-.4L5,30.23V14.38H48.83l-.9,3.18a41.82,41.82,0,0,1-14.1,21.27l-1.64,1.32Z" style="fill:#fff"/><path d="M45.52,16.88a39.47,39.47,0,0,1-13.26,20A36.75,36.75,0,0,0,7.92,27.7H7.51V16.88h38m6.62-5H2.51V32.76l5.05,0h.38a31.82,31.82,0,0,1,21,7.94l3.16,2.78,3.27-2.64A44.24,44.24,0,0,0,50.33,18.24l1.81-6.36Z"/><rect x="5.01" y="4.88" width="95.99" height="13" style="fill:#fff"/><path d="M98.49,7.38v8h-91v-8h91m5-5H2.51v18h101v-18Z"/></svg>