<svg xmlns="http://www.w3.org/2000/svg" width="446" height="128" viewBox="0 0 446 128"><title>logo-type-logo</title><path d="M7.09,105.71v-1.25l2.25-.88a6.85,6.85,0,0,0,3.43-2.5,7.41,7.41,0,0,0,.94-4V31.89a7.73,7.73,0,0,0-.94-4.13,6.29,6.29,0,0,0-3.43-2.37l-2.25-.87V23.27H42.94q15.24,0,22,5.56a17.43,17.43,0,0,1,6.75,14.05,16.38,16.38,0,0,1-4.94,11.55q-4.94,5.19-16.92,7.31,13.74,1.5,20.11,7.18a17.82,17.82,0,0,1,6.37,13.8,20.35,20.35,0,0,1-1.75,8.06,19.64,19.64,0,0,1-5.93,7.43,32,32,0,0,1-11.43,5.43,68.2,68.2,0,0,1-18.36,2.07ZM32.2,61.61h5.37q8.35,0,12-3.87t3.69-13.49q0-10-3.38-14.24t-11-4.25H32.2Zm0,41.6h6.24q9.38,0,13.93-5T56.93,82.6q0-10-4.37-14.24T38.19,64.11h-6Z"/><path d="M81.53,105.71v-1.25l1.88-.5a5.8,5.8,0,0,0,3.43-2.25,7.16,7.16,0,0,0,.94-3.87V58.74a7,7,0,0,0-.94-4.06,5.31,5.31,0,0,0-3.43-1.81l-1.88-.5V51.12L103,43.88l1.25,1.25,1.12,10.74v1A26.58,26.58,0,0,1,110,50.43a25.53,25.53,0,0,1,6.25-4.81,14.16,14.16,0,0,1,6.8-1.87c3.17,0,5.58.88,7.25,2.62a9.25,9.25,0,0,1,2.5,6.62,8.61,8.61,0,0,1-2.44,6.56,8.14,8.14,0,0,1-5.81,2.31q-5.25,0-9.24-5.24l-.25-.25a4.18,4.18,0,0,0-2.87-1.94,3.33,3.33,0,0,0-3,1.56,9.31,9.31,0,0,0-2.06,2.69,29.36,29.36,0,0,0-1.56,3.56V97.09c0,3.33,1.45,5.41,4.37,6.24l4,1.13v1.25Z"/><path d="M136.87,105.71v-1.25l1.75-.5a5.83,5.83,0,0,0,3.43-2.25,7.52,7.52,0,0,0,.94-4V58.62a6.84,6.84,0,0,0-.94-3.94,5.33,5.33,0,0,0-3.43-1.81l-1.75-.38V51.25l22.85-7.37L161,45.13l-.37,17.73v35a7.41,7.41,0,0,0,.94,4,5.71,5.71,0,0,0,3.3,2.25l1.25.38v1.25Zm14.74-68.45a10.27,10.27,0,0,1-7.19-2.69,8.85,8.85,0,0,1-2.93-6.81,8.8,8.8,0,0,1,2.93-6.87,10.44,10.44,0,0,1,7.19-2.62,10.19,10.19,0,0,1,7.11,2.62,8.86,8.86,0,0,1,2.88,6.87,8.91,8.91,0,0,1-2.88,6.81A10,10,0,0,1,151.61,37.26Z"/><path d="M171.84,105.71v-1.25l1.62-.38a7.31,7.31,0,0,0,3.75-2.18,5.92,5.92,0,0,0,1.37-4.06q0-4.62.07-9.18t.06-9.19V48.12h-7V46.75l2.75-.5a4.86,4.86,0,0,0,3.62-1.75,9.86,9.86,0,0,0,1.63-4.12,28,28,0,0,1,3.68-8.56A44.25,44.25,0,0,1,189,25,27.72,27.72,0,0,1,199,18.71a32,32,0,0,1,10.43-1.81A20,20,0,0,1,218.55,19a7,7,0,0,1,4.13,6.8,7.06,7.06,0,0,1-2,5.31A7.71,7.71,0,0,1,215.06,33a9.92,9.92,0,0,1-5.5-1.62,16.56,16.56,0,0,1-4.87-5.75l-1.75-2.12a3.5,3.5,0,0,0-2.75-1.69c-.91,0-1.58.73-2,2.06a83.47,83.47,0,0,0-1.32,10.24q-.44,5.88-.43,11.49h14v2.5h-14V97.59q0,4.74,5,6.12l3.13.75v1.25Z"/><path d="M236,107.58a38.71,38.71,0,0,1-11-1.44,50.37,50.37,0,0,1-9-3.56l.13-14.86h1.25l4.25,7.49a22.64,22.64,0,0,0,6,7.44,13.89,13.89,0,0,0,8.43,2.43q6,0,9.68-2.68a8.46,8.46,0,0,0,3.69-7.19,9.11,9.11,0,0,0-2.62-6.74q-2.62-2.62-9.75-4.75l-5.24-1.62a25.73,25.73,0,0,1-12-7,16.48,16.48,0,0,1-4.38-11.61,18,18,0,0,1,6.5-14q6.49-5.74,18.61-5.75a38.64,38.64,0,0,1,9.18,1.06A36.09,36.09,0,0,1,258.15,48l-.75,13.49h-1.25l-4.37-7.75a18.66,18.66,0,0,0-4.69-5.8q-2.31-1.69-6.93-1.69a14.69,14.69,0,0,0-8,2.37,7.55,7.55,0,0,0-3.75,6.75,8.09,8.09,0,0,0,3.19,6.74A32.1,32.1,0,0,0,241,66.73l5.62,1.63q9,2.74,12.86,7.56a17.82,17.82,0,0,1,3.87,11.55,17.47,17.47,0,0,1-7.18,14.61Q249,107.59,236,107.58Z"/><path d="M290.5,107.58a38.71,38.71,0,0,1-11-1.44,50.37,50.37,0,0,1-9-3.56l.13-14.86h1.25l4.24,7.49a22.53,22.53,0,0,0,6.06,7.44,13.89,13.89,0,0,0,8.43,2.43q6,0,9.68-2.68A8.46,8.46,0,0,0,304,95.21a9.12,9.12,0,0,0-2.63-6.74q-2.61-2.62-9.74-4.75l-5.24-1.62a25.82,25.82,0,0,1-12-7A16.51,16.51,0,0,1,270,63.49a18,18,0,0,1,6.5-14q6.5-5.74,18.61-5.75a38.64,38.64,0,0,1,9.18,1.06A36.09,36.09,0,0,1,312.61,48l-.75,13.49h-1.25l-4.37-7.75a18.8,18.8,0,0,0-4.69-5.8q-2.31-1.69-6.93-1.69a14.67,14.67,0,0,0-8,2.37,7.55,7.55,0,0,0-3.75,6.75,8.11,8.11,0,0,0,3.18,6.74,32.36,32.36,0,0,0,9.43,4.62l5.62,1.63q9,2.74,12.87,7.56a17.82,17.82,0,0,1,3.87,11.55,17.47,17.47,0,0,1-7.18,14.61Q303.49,107.59,290.5,107.58Z"/><path d="M374,104.65l-.39-2a34.53,34.53,0,0,0-11.08-19.33l-2.24-2,2.32-1.86A36.82,36.82,0,0,0,375,60.72l.51-1.82h18.94l.51,1.84a36.8,36.8,0,0,0,12.48,19l2.29,1.84-2.19,2a34.55,34.55,0,0,0-10.81,19.09l-.39,2Z" style="fill:#fff"/><path d="M392.55,61.4a39.58,39.58,0,0,0,13.32,20.27,36.82,36.82,0,0,0-11.59,20.48H376a36.81,36.81,0,0,0-11.88-20.74,39.56,39.56,0,0,0,13.26-20h15.15m3.81-5H373.62l-1,3.64A34.32,34.32,0,0,1,361,77.51l-4.63,3.73,4.46,3.92a31.93,31.93,0,0,1,10.28,17.93l.78,4.06h26.52l.78-4.06a32,32,0,0,1,10-17.7l4.37-3.93L409,77.77a34.29,34.29,0,0,1-11.64-17.7l-1-3.67Z"/><path d="M404.3,83.61a41.74,41.74,0,0,1-14.16-21.54l-.87-3.17h43.6V74.72h-2.49a34.32,34.32,0,0,0-22.84,8.8L406,85Z" style="fill:#fff"/><path d="M430.37,61.4V72.23a36.71,36.71,0,0,0-24.5,9.44A39.58,39.58,0,0,1,392.55,61.4h37.82m5-5H386l1.74,6.33a44.3,44.3,0,0,0,15,22.83l3.32,2.67,3.16-2.84a31.77,31.77,0,0,1,21.18-8.16l5,0V56.4Z"/><path d="M362.49,83.28a34.36,34.36,0,0,0-22.7-8.56h-.38l-2.53,0V58.9h43.83l-.9,3.18A41.85,41.85,0,0,1,365.7,83.36l-1.63,1.31Z" style="fill:#fff"/><path d="M377.4,61.4a39.56,39.56,0,0,1-13.26,20,36.71,36.71,0,0,0-24.35-9.19h-.41V61.4h38m6.61-5H334.38V77.29l5.06-.06h.38a31.82,31.82,0,0,1,21,7.94L364,87.94l3.28-2.64a44.2,44.2,0,0,0,14.94-22.54L384,56.4Z"/><rect x="336.88" y="49.4" width="95.99" height="13" style="fill:#fff"/><path d="M430.37,51.9v8h-91v-8h91m5-5h-101v18h101v-18Z"/></svg>